<svg width="338" height="32" viewBox="0 0 338 32" fill="none" xmlns="http://www.w3.org/2000/svg">
<path d="M100.465 20.41C100.482 21.2368 100.357 22.0605 100.096 22.8453C99.873 23.4999 99.5259 24.1056 99.0733 24.6293C98.627 25.1337 98.0869 25.5472 97.483 25.847C96.8319 26.1697 96.1458 26.4167 95.4382 26.5832C94.6538 26.7679 93.8562 26.891 93.0526 26.9513C92.2006 26.9513 91.3297 26.9513 90.4398 26.9513H72.9456V7.7804L69.282 2.88147H90.1558C90.8374 2.88147 91.5285 2.88147 92.229 2.88147C92.899 2.93208 93.5638 3.03625 94.217 3.19296C94.8272 3.34145 95.4181 3.56001 95.9778 3.84426C96.516 4.1209 96.9976 4.49547 97.3977 4.94865C97.8129 5.43111 98.1311 5.98872 98.3349 6.59106C98.5757 7.32165 98.691 8.08757 98.6757 8.85646C98.7387 10.1912 98.3262 11.5052 97.5113 12.5661C96.5415 13.6501 95.2088 14.3447 93.7626 14.52C94.7843 14.5763 95.7952 14.757 96.773 15.058C97.526 15.29 98.2223 15.6758 98.8177 16.1907C99.3454 16.6597 99.7458 17.2538 99.9821 17.9181C100.293 18.7127 100.456 19.5571 100.465 20.41ZM92.3426 9.98916C92.3884 9.69832 92.3884 9.40215 92.3426 9.11132C92.2439 8.82342 92.0669 8.56853 91.8314 8.37506C91.5372 8.14118 91.1993 7.96792 90.8374 7.86535C90.3102 7.72197 89.765 7.65521 89.2186 7.66713H79.5627V12.2262H89.1618C89.6842 12.1878 90.1996 12.0831 90.6954 11.9147C91.0552 11.8207 91.3929 11.6572 91.6894 11.4334C91.9251 11.2519 92.1028 11.0059 92.2006 10.7254C92.2825 10.4879 92.3303 10.24 92.3426 9.98916ZM93.7626 19.5322C93.7778 19.0721 93.6803 18.6153 93.4786 18.2012C93.2769 17.9238 93.0015 17.7081 92.6834 17.5782C92.1957 17.373 91.6777 17.2487 91.1498 17.2101C90.525 17.2101 89.7677 17.2101 88.8778 17.2101H79.5627V22.109H88.963C89.834 22.109 90.5913 22.109 91.235 22.109C91.7635 22.0742 92.2821 21.9497 92.7686 21.7409C93.1393 21.5769 93.4478 21.2991 93.649 20.948C93.8069 20.4934 93.846 20.0061 93.7626 19.5322Z" fill="white"/>
<path d="M103.078 26.923V2.88147H127.502V8.00694H109.78V11.9148H126.593V17.0969H109.78V21.7976H127.842V26.923H103.078Z" fill="white"/>
<path d="M131.137 26.923V2.88147H155.56V8.00694H137.839V11.9148H154.652V17.0969H137.839V21.7976H155.816V26.923H131.137Z" fill="white"/>
<path d="M165.699 26.9231H159.082V2.88159H175.412C176.954 2.83845 178.494 3.0197 179.984 3.41963C181.076 3.71138 182.093 4.23277 182.966 4.94877C183.727 5.59066 184.305 6.42077 184.642 7.35576C184.996 8.36535 185.169 9.42942 185.153 10.499C185.173 11.4046 185.028 12.3063 184.727 13.1608C184.463 13.8784 184.069 14.5409 183.563 15.1148C183.073 15.6651 182.497 16.1336 181.859 16.5023C181.21 16.8805 180.525 17.1935 179.814 17.4368L191.827 31.7371H184.216L172.856 18.0031H165.756L165.699 26.9231ZM178.564 10.4707C178.579 10.0673 178.521 9.66455 178.394 9.28135C178.267 8.95428 178.038 8.67641 177.741 8.48846C177.369 8.25647 176.953 8.10232 176.519 8.03538C175.886 7.97966 175.25 7.97966 174.617 8.03538H165.699V13.0476H174.617C175.25 13.1034 175.886 13.1034 176.519 13.0476C176.953 12.9814 177.369 12.8272 177.741 12.5945C178.038 12.4065 178.267 12.1287 178.394 11.8016C178.539 11.3737 178.597 10.9212 178.564 10.4707Z" fill="white"/>
<path d="M187.879 22.8453V2.88147H210.94V8.00694H194.383V12.1979H210.201V17.3234H194.383V30.1795L187.879 22.8453Z" fill="white"/>
<path d="M245.616 14.9165C245.659 16.8098 245.271 18.6882 244.48 20.4101C243.731 21.9767 242.61 23.3374 241.214 24.3746C239.671 25.4973 237.926 26.3143 236.074 26.7816C233.848 27.3527 231.556 27.6288 229.258 27.6028C226.96 27.6265 224.668 27.3505 222.442 26.7816C220.571 26.3172 218.807 25.5001 217.245 24.3746C215.841 23.3384 214.711 21.9779 213.95 20.4101C213.148 18.701 212.75 16.8314 212.786 14.9448C212.75 13.0583 213.148 11.1887 213.95 9.47957C214.711 7.91176 215.841 6.55134 217.245 5.51512C218.805 4.38014 220.569 3.5535 222.442 3.07982C226.92 1.99309 231.595 1.99309 236.074 3.07982C237.926 3.54703 239.671 4.36412 241.214 5.4868C242.61 6.52393 243.731 7.88471 244.48 9.45125C245.266 11.1645 245.655 13.0327 245.616 14.9165ZM239.027 14.9165C239.026 14.0032 238.883 13.0955 238.601 12.2264C238.298 11.3099 237.771 10.4828 237.068 9.81938C236.211 9.03523 235.193 8.44588 234.086 8.09201C232.524 7.6099 230.892 7.3898 229.258 7.44071C228.095 7.42817 226.934 7.53253 225.793 7.7522C224.898 7.92249 224.03 8.20806 223.209 8.60173C222.539 8.92834 221.926 9.35841 221.391 9.87602C220.925 10.3325 220.532 10.8578 220.227 11.4335C219.937 11.9768 219.727 12.5584 219.602 13.1608C219.485 13.7483 219.428 14.346 219.431 14.9448C219.427 15.5531 219.484 16.1603 219.602 16.7572C219.727 17.3597 219.937 17.9414 220.227 18.4845C220.53 19.0615 220.923 19.5871 221.391 20.042C221.927 20.5503 222.541 20.9708 223.209 21.288C224.031 21.679 224.899 21.9645 225.793 22.1375C226.934 22.3574 228.095 22.4617 229.258 22.449C230.892 22.4999 232.524 22.2798 234.086 21.7977C235.193 21.4438 236.211 20.8545 237.068 20.0703C237.783 19.3829 238.31 18.5254 238.601 17.5784C238.889 16.7198 239.043 15.8219 239.056 14.9165H239.027Z" fill="white"/>
<path d="M254.761 26.9231H248.257V2.88159H264.587C266.091 2.84934 267.593 3.03049 269.046 3.41962C270.138 3.71138 271.155 4.23277 272.028 4.94876C272.788 5.59065 273.366 6.42076 273.703 7.35575C274.058 8.36534 274.231 9.42941 274.214 10.499C274.234 11.4046 274.09 12.3063 273.788 13.1608C273.525 13.8784 273.13 14.5409 272.624 15.1147C272.134 15.6651 271.559 16.1336 270.92 16.5023C270.271 16.8805 269.586 17.1935 268.875 17.4368L276.799 26.9231H269.188L261.889 18.0598H254.789L254.761 26.9231ZM267.626 10.4707C267.64 10.0673 267.583 9.66455 267.455 9.28134C267.328 8.95427 267.099 8.67641 266.802 8.48845C266.43 8.25646 266.015 8.10232 265.581 8.03537C264.948 7.97965 264.311 7.97965 263.678 8.03537H254.761V13.0476H263.678C264.311 13.1034 264.948 13.1034 265.581 13.0476C266.015 12.9814 266.43 12.8272 266.802 12.5945C267.099 12.4065 267.328 12.1287 267.455 11.8016C267.61 11.3756 267.678 10.9231 267.654 10.4707H267.626Z" fill="white"/>
<path d="M293.526 2.25858C295.737 2.24147 297.943 2.44065 300.115 2.85325C302.047 3.21821 303.947 3.73908 305.795 4.41071V10.3008C304.216 9.43123 302.538 8.7561 300.796 8.29021C299.76 8.00953 298.707 7.79203 297.644 7.63891C296.468 7.46868 295.282 7.3835 294.094 7.38405C292.742 7.37046 291.392 7.48423 290.061 7.72386C289.083 7.91756 288.13 8.22157 287.221 8.63002C286.482 8.95155 285.801 9.39157 285.205 9.93262C284.706 10.3914 284.284 10.9267 283.955 11.5184C283.661 12.0594 283.45 12.6418 283.331 13.2458C283.217 13.805 283.16 14.3742 283.16 14.9448C283.162 15.4671 283.209 15.9883 283.302 16.5023C283.412 17.0829 283.603 17.6453 283.87 18.173C284.163 18.7661 284.546 19.3105 285.006 19.7871C285.567 20.3471 286.22 20.8069 286.937 21.1464C287.84 21.5849 288.794 21.9084 289.777 22.1091C291.086 22.3706 292.419 22.4939 293.753 22.4773H295.77L297.332 22.279L298.666 21.9676L299.944 21.5994V18.7677H292.56V13.3307H306.363V25.6205C305.43 25.9332 304.482 26.1979 303.523 26.4134C302.444 26.6588 301.336 26.8665 300.2 27.0364C299.064 27.2063 297.919 27.3384 296.764 27.4328C295.609 27.4328 294.529 27.4328 293.526 27.4328C292.006 27.438 290.487 27.3339 288.982 27.1213C287.601 26.9304 286.241 26.608 284.921 26.1585C283.62 25.8109 282.369 25.2969 281.201 24.6294C280.194 23.9771 279.301 23.1639 278.559 22.2224C277.812 21.261 277.235 20.1786 276.855 19.0225C276.438 17.7042 276.236 16.3272 276.259 14.9448C276.24 13.5697 276.451 12.2011 276.884 10.8954C277.278 9.7255 277.874 8.63308 278.645 7.66722C279.452 6.71446 280.411 5.90118 281.485 5.26024C282.57 4.50798 283.743 3.88992 284.978 3.4196C286.311 3.00926 287.68 2.72484 289.067 2.57008C290.544 2.35915 292.034 2.25505 293.526 2.25858Z" fill="white"/>
<path d="M309.6 26.923V2.88147H338L333.91 8.00694H316.189V11.9148H333.002V17.0969H316.189V21.7976H334.166V26.923H309.6Z" fill="white"/>
<path d="M58.7377 2.52716L27.3705 0.0157758C26.1755 -0.0799015 24.9865 0.261979 24.0271 0.977133C23.1026 1.6663 21.9637 2.00965 20.8101 1.94698L0 0.816391C0.54453 8.26439 12.5507 12.1329 28.4507 17.2241C28.9315 17.378 29.0946 17.9753 28.7554 18.3476L20.5139 27.394C20.0995 27.8489 20.4418 28.5753 21.0583 28.5494L50.3933 27.3182C51.3507 27.278 51.9823 26.3098 51.6299 25.4233C51.0618 23.994 50.2551 21.9533 49.572 20.1815C47.6971 15.3191 47.0116 12.9335 59.2673 4.31815C60.0379 3.77644 59.6809 2.55463 58.7377 2.52716Z" fill="white"/>
<path d="M21.4857 14.9668C33.6506 9.90511 46.4309 6.01565 59.6839 3.44031C59.709 3.7612 59.5824 4.0966 59.2672 4.31819C47.0116 12.9336 47.697 15.3191 49.5719 20.1815C50.2551 21.9533 51.0618 23.9941 51.6299 25.4233C51.9822 26.3098 51.3507 27.278 50.3932 27.3182L21.0583 28.5495C20.4418 28.5754 20.0994 27.8489 20.5138 27.3941L28.7554 18.3476C29.0946 17.9753 28.9315 17.3781 28.4507 17.2241C26.0299 16.449 23.6993 15.7022 21.4857 14.9668Z" fill="url(#paint0_linear)"/>
<defs>
<linearGradient id="paint0_linear" x1="37.8792" y1="9.11577" x2="37.8792" y2="24.5" gradientUnits="userSpaceOnUse">
<stop stop-color="#F7B830"/>
<stop offset="1" stop-color="white"/>
</linearGradient>
</defs>
</svg>
