<svg width="38" height="49" viewBox="0 0 38 49" fill="none" xmlns="http://www.w3.org/2000/svg">
<path d="M27 9.25H7.79999L11 48.25H33L36.2 9.25H30" stroke="#F4D03F" stroke-width="1.5"/>
<mask id="path-2-inside-1" fill="white">
<path fill-rule="evenodd" clip-rule="evenodd" d="M7.01884 10H26V15C26 19 31 19 31 15V10H36.9854C36.9951 9.82578 37 9.6503 37 9.47368C37 4.24153 32.6827 0 27.3571 0C24.1156 0 21.2477 1.57137 19.4995 3.98103C18.1726 2.81456 16.4206 2.10526 14.5 2.10526C10.3579 2.10526 7 5.40421 7 9.47368C7 9.65065 7.00635 9.82617 7.01884 10Z"/>
</mask>
<path d="M7.01884 10L5.52269 10.1075L5.62273 11.5H7.01884V10ZM26 10H27.5V8.50001H26V10ZM31 10V8.50001H29.5V10H31ZM36.9854 10V11.5H38.4041L38.483 10.0835L36.9854 10ZM19.4995 3.98103L18.5091 5.10758L19.7462 6.19523L20.7136 4.86189L19.4995 3.98103ZM7.01884 11.5H26V8.50001H7.01884V11.5ZM24.5 10V15H27.5V10H24.5ZM24.5 15C24.5 16.3211 24.9192 17.457 25.6869 18.2759C26.4475 19.0872 27.4725 19.5 28.5 19.5C29.5275 19.5 30.5525 19.0872 31.3131 18.2759C32.0808 17.457 32.5 16.3211 32.5 15H29.5C29.5 15.6789 29.2942 16.043 29.1244 16.2241C28.9475 16.4129 28.7225 16.5 28.5 16.5C28.2775 16.5 28.0525 16.4129 27.8756 16.2241C27.7058 16.043 27.5 15.6789 27.5 15H24.5ZM32.5 15V10H29.5V15H32.5ZM31 11.5H36.9854V8.50001H31V11.5ZM38.483 10.0835C38.4943 9.88147 38.5 9.67816 38.5 9.47368H35.5C35.5 9.62244 35.4959 9.77009 35.4877 9.91654L38.483 10.0835ZM38.5 9.47368C38.5 3.38818 33.486 -1.5 27.3571 -1.5V1.5C31.8795 1.5 35.5 5.09487 35.5 9.47368H38.5ZM27.3571 -1.5C23.6215 -1.5 20.3077 0.312747 18.2854 3.10018L20.7136 4.86189C22.1878 2.82999 24.6098 1.5 27.3571 1.5V-1.5ZM20.4899 2.85449C18.8975 1.45453 16.796 0.605263 14.5 0.605263V3.60526C16.0453 3.60526 17.4478 4.17458 18.5091 5.10758L20.4899 2.85449ZM14.5 0.605263C9.55458 0.605263 5.5 4.55087 5.5 9.47368H8.5C8.5 6.25756 11.1612 3.60526 14.5 3.60526V0.605263ZM5.5 9.47368C5.5 9.68655 5.50764 9.89791 5.52269 10.1075L8.51498 9.89253C8.50506 9.75442 8.5 9.61476 8.5 9.47368H5.5Z" fill="#F4D03F" mask="url(#path-2-inside-1)"/>
<path d="M10 40.25H34" stroke="#F4D03F" stroke-width="1.5"/>
<path d="M10 31H34" stroke="#F4D03F" stroke-width="1.5"/>
<path d="M9 21H35" stroke="#F4D03F" stroke-width="1.5"/>
<path d="M1 40.25H7" stroke="#F4D03F" stroke-width="1.5" stroke-linecap="round"/>
<path d="M1 31H6" stroke="#F4D03F" stroke-width="1.5" stroke-linecap="round"/>
<path d="M1 21H5" stroke="#F4D03F" stroke-width="1.5" stroke-linecap="round"/>
<path d="M1 9.25H4" stroke="#F4D03F" stroke-width="1.5" stroke-linecap="round"/>
</svg>
