<svg width="28" height="20" viewBox="0 0 28 20" fill="none" xmlns="http://www.w3.org/2000/svg">
<path d="M26.8719 5.04761L25.6059 17.8776C23.4067 18.9181 21.0881 19.0337 19 18.1931" stroke="#d09622" stroke-width="0.9" stroke-linejoin="round"/>
<path fill-rule="evenodd" clip-rule="evenodd" d="M20.3576 6.34001L21.3093 7.33121L21.2814 6.78402C21.5228 6.79341 21.7688 6.79765 22.0185 6.79643C23.4645 6.78938 24.8081 6.6002 25.8193 6.27717C26.3196 6.11737 26.7896 5.90886 27.1532 5.6356C27.5001 5.3749 27.9056 4.93114 27.8999 4.29563C27.8938 3.61658 27.4248 3.16409 27.048 2.90904C26.744 2.70328 26.373 2.53547 25.9689 2.39925C25.4538 1.50424 24.4014 0.973983 23.3307 1.3174C23.3027 1.3264 23.2749 1.33591 23.2475 1.34593C22.4258 0.235105 20.869 -0.16252 19.4856 0.281216C18.243 0.679793 17.2924 1.68721 17.0493 2.88151C17.046 2.88361 17.0426 2.88571 17.0393 2.88782C17.0646 2.91178 17.0893 2.93641 17.1136 2.9617L17.6823 3.5539C17.7471 3.51893 17.816 3.48479 17.8889 3.45156C17.9032 2.45906 18.6449 1.49604 19.7605 1.13821C20.8186 0.798814 21.897 1.10524 22.4784 1.82889C22.6338 2.02234 22.7538 2.24562 22.8283 2.49434C22.8534 2.57824 22.8727 2.66278 22.8864 2.74759C22.9742 2.60473 23.0859 2.47886 23.218 2.37759C23.3326 2.28964 23.4626 2.22025 23.6056 2.1744C23.6255 2.168 23.6455 2.16214 23.6655 2.15678C24.3541 1.97257 25.078 2.40148 25.3199 3.14205C26.3471 3.42426 26.9958 3.8388 27 4.30373C27.0078 5.1699 24.7755 5.88299 22.0141 5.89644C21.7492 5.89773 21.4891 5.89254 21.2353 5.88133C20.9234 5.86756 20.6209 5.8447 20.3307 5.81362L20.3576 6.34001Z" fill="#d09622"/>
<path d="M13.4599 8.56874H15.4993V4.51929L22.5269 11.6347L15.4993 18.7501V14.7006H12.9399" stroke="#d09622" stroke-width="0.9" stroke-linejoin="round"/>
<path d="M2.09998 5.90005L3.39743 17.8776C5.65574 19.0479 8.24656 19.0336 10.69 17.8776L11.7999 5.80005" stroke="#d09622" stroke-width="0.9" stroke-linejoin="round"/>
<path d="M2.53303 5.96801C2.88158 6.15213 3.31052 6.30291 3.78741 6.42186L3.88422 8.25458C3.89433 8.4461 3.9419 8.73848 4.09365 9.00742C4.26096 9.30392 4.61069 9.64197 5.16342 9.61277C5.71615 9.58358 6.02833 9.21057 6.16347 8.89809C6.28604 8.61466 6.30255 8.3189 6.29243 8.12738L6.21971 6.75062C6.48325 6.76242 6.75312 6.7679 7.02766 6.7666C8.39102 6.76018 9.65314 6.58767 10.5981 6.29591C11.0659 6.1515 11.4988 5.96495 11.8307 5.72388C12.1448 5.49574 12.5129 5.1077 12.5077 4.54814C12.5022 3.9508 12.0771 3.55539 11.735 3.3316C11.4473 3.14343 11.0914 2.98955 10.7001 2.8647C10.2331 2.04936 9.26769 1.58887 8.31291 1.88486C8.25812 1.90184 8.20463 1.921 8.15247 1.94221C7.41041 0.904147 5.9505 0.534704 4.66235 0.934041C3.51382 1.2901 2.62409 2.20067 2.40776 3.28913C2.24526 3.38525 2.09417 3.49461 1.96418 3.61963C1.73147 3.84344 1.50972 4.17631 1.51372 4.60681C1.52035 5.31821 2.11209 5.74566 2.53303 5.96801Z" stroke="#d09622" stroke-width="0.9"/>
<path d="M7.91821 9.21154C9.87494 9.21154 11.5 8.5 11.5 8.5" stroke="#d09622" stroke-width="0.9" stroke-linecap="round"/>
<path d="M7.91821 11.4845C9.34798 11.4845 10.6828 11.1046 11.298 10.9" stroke="#d09622" stroke-width="0.9" stroke-linecap="round"/>
<path d="M7.91821 13.7729C9.11478 13.7729 10.2448 13.5068 10.9423 13.3" stroke="#d09622" stroke-width="0.9" stroke-linecap="round"/>
<path d="M7.91821 16.0731C8.92851 16.0731 9.89139 15.8834 10.5865 15.7" stroke="#d09622" stroke-width="0.9" stroke-linecap="round"/>
</svg>
