<svg width="54" height="38" viewBox="0 0 54 38" fill="none" xmlns="http://www.w3.org/2000/svg">
<mask id="mask0" mask-type="alpha" maskUnits="userSpaceOnUse" x="0" y="9" width="33" height="28">
<path d="M19.5 14L20.5 12L21.5 10.5L19.5 9.5L0 12V37L32.5 36.5V29.5L26 26L20.5 19.5L19.5 14Z" fill="#C4C4C4"/>
</mask>
<g mask="url(#mask0)">
<path fill-rule="evenodd" clip-rule="evenodd" d="M33.6035 22C33.3481 22.6331 32.974 23.2409 32.4952 23.8156C32.4984 23.8772 32.5 23.9387 32.5 24C32.5 25.7027 31.2572 27.5497 28.5783 29.0566C25.9464 30.537 22.2095 31.5 18 31.5C13.7905 31.5 10.0536 30.537 7.42168 29.0566C4.74276 27.5497 3.5 25.7027 3.5 24C3.5 23.9387 3.50161 23.8772 3.50484 23.8156C3.02595 23.2409 2.65188 22.6331 2.39647 22C2.137 22.6432 2 23.3126 2 24C2 28.9706 9.16344 33 18 33C26.8366 33 34 28.9706 34 24C34 23.3126 33.863 22.6432 33.6035 22Z" fill="#F4D03F"/>
<path d="M33.25 20C33.25 22.094 31.7332 24.1425 28.946 25.7103C26.1823 27.2648 22.3139 28.25 18 28.25C13.6861 28.25 9.81766 27.2648 7.05399 25.7103C4.26681 24.1425 2.75 22.094 2.75 20C2.75 17.906 4.26681 15.8575 7.05399 14.2897C9.81766 12.7352 13.6861 11.75 18 11.75C22.3139 11.75 26.1823 12.7352 28.946 14.2897C31.7332 15.8575 33.25 17.906 33.25 20Z" stroke="#F4D03F" stroke-width="1.5"/>
<line x1="2.80005" y1="19" x2="2.80005" y2="25" stroke="#F4D03F" stroke-width="1.5"/>
<path d="M14.0317 16.6433C14.1027 16.7068 14.153 16.8169 14.1826 16.9735C14.1983 17.1146 14.1363 17.2542 13.9965 17.3922C13.8921 17.4923 13.7853 17.6131 13.6764 17.7545C13.552 17.8943 13.4338 18.0486 13.3218 18.2176C13.2098 18.3866 13.1132 18.5572 13.032 18.7296C12.9508 18.9019 12.9012 19.0707 12.8831 19.2361C12.8605 19.4427 12.8903 19.669 12.9724 19.915C13.0561 20.1472 13.189 20.3569 13.3711 20.5441C13.7214 20.9031 14.0859 21.0615 14.4645 21.0193C14.8293 20.9616 15.1867 20.7568 15.5369 20.4047C15.7643 20.1787 16.0015 19.9328 16.2488 19.6671C16.4806 19.3997 16.7117 19.1392 16.9421 18.8856C17.1739 18.6182 17.3958 18.3706 17.6077 18.1429C17.8212 17.9014 18.0077 17.6918 18.1674 17.5141C18.3794 17.2863 18.6052 17.074 18.8449 16.8772C19.0846 16.6804 19.3521 16.5145 19.6474 16.3795C19.9273 16.2428 20.2419 16.1448 20.5912 16.0855C20.9406 16.0261 21.3308 16.02 21.762 16.0672C22.5984 16.2563 23.2428 16.6335 23.6952 17.1989C24.1338 17.7487 24.3861 18.3618 24.4524 19.0382C24.5123 19.6303 24.4266 20.1995 24.1954 20.7458C23.9657 21.2783 23.5911 21.7113 23.0715 22.0447C22.9377 22.1277 22.7593 22.1918 22.5362 22.2371C22.313 22.2824 22.1583 22.2724 22.0719 22.2072C21.9424 22.1094 21.8658 21.9546 21.8422 21.7429C21.8032 21.5296 21.8283 21.372 21.9173 21.2702C22.2754 20.9887 22.5548 20.6429 22.7555 20.2327C22.9408 19.8208 22.9975 19.3739 22.9256 18.8921C22.8724 18.5238 22.7346 18.216 22.5124 17.9686C22.2747 17.7195 21.9972 17.5498 21.6798 17.4593C21.3486 17.3533 20.9975 17.3567 20.6268 17.4695C20.2421 17.5668 19.8831 17.7854 19.5498 18.1254C19.0107 18.638 18.4977 19.1952 18.0111 19.7972C17.526 20.3854 16.9778 20.9806 16.3664 21.5829C16.0238 21.866 15.6593 22.0631 15.2732 22.1742C14.8885 22.2716 14.5191 22.3008 14.1649 22.2621C13.7953 22.2216 13.4564 22.1148 13.148 21.9417C12.8243 21.7669 12.5451 21.5411 12.3105 21.2645C12.0604 20.9862 11.8688 20.6725 11.7356 20.3233C11.6024 19.9742 11.5422 19.5982 11.5551 19.1953C11.5846 18.6409 11.7736 18.1248 12.1219 17.6472C12.4549 17.1678 12.8466 16.7924 13.2971 16.5211C13.397 16.4623 13.5155 16.4474 13.6526 16.4763C13.7912 16.4915 13.9176 16.5471 14.0317 16.6433Z" fill="#F4D03F"/>
<path d="M11 19.222H25.5" stroke="#F4D03F" stroke-width="1.5" stroke-linecap="round"/>
</g>
<path fill-rule="evenodd" clip-rule="evenodd" d="M46.848 27.8542C46.2785 28.2306 45.6256 28.5188 44.9052 28.7202C44.8728 28.7728 44.8393 28.8243 44.8045 28.8748C43.8383 30.2768 41.7669 31.0925 38.706 30.8131C35.6988 30.5386 32.0753 29.211 28.6092 26.8223C25.1431 24.4337 22.6125 21.5203 21.2854 18.8078C19.9347 16.0468 19.9595 13.8208 20.9257 12.4188C20.9604 12.3683 20.9967 12.3186 21.0343 12.2696C20.9661 11.5247 21.0029 10.812 21.1519 10.1458C20.5732 10.5282 20.0806 11.0016 19.6905 11.5676C16.87 15.6604 20.4819 23.0432 27.758 28.0575C35.0341 33.0718 43.2191 33.8188 46.0396 29.726C46.4297 29.16 46.6967 28.5311 46.848 27.8542Z" fill="#F4D03F"/>
<path d="M47.6918 26.0068C46.5036 27.731 44.0922 28.557 40.9076 28.2664C37.7498 27.9781 34.0055 26.5942 30.4534 24.1463C26.9013 21.6984 24.275 18.692 22.8815 15.8437C21.4762 12.9712 21.3897 10.4237 22.5779 8.69954C23.7661 6.97534 26.1775 6.14929 29.3621 6.43995C32.5199 6.72815 36.2643 8.11213 39.8163 10.56C43.3684 13.0079 45.9947 16.0143 47.3882 18.8626C48.7935 21.7351 48.8801 24.2826 47.6918 26.0068Z" stroke="#F4D03F" stroke-width="1.5"/>
<line x1="23.1865" y1="7.90459" x2="19.7818" y2="12.845" stroke="#F4D03F" stroke-width="1.5"/>
<line x1="48.2593" y1="25.1834" x2="44.8546" y2="30.1238" stroke="#F4D03F" stroke-width="1.5"/>
<path d="M33.7721 12.3374C33.7945 12.43 33.7735 12.5491 33.709 12.6949C33.6419 12.82 33.5116 12.8998 33.3181 12.9341C33.1753 12.9573 33.0189 12.9961 32.8489 13.0507C32.6672 13.0952 32.4823 13.1553 32.2942 13.2308C32.1061 13.3064 31.9298 13.3921 31.7651 13.488C31.6004 13.5838 31.4638 13.6947 31.3551 13.8205C31.2192 13.9778 31.1153 14.1811 31.0434 14.4303C30.9805 14.6689 30.9709 14.917 31.0146 15.1745C31.0994 15.6689 31.3096 16.0061 31.6453 16.1862C31.9784 16.3457 32.389 16.3799 32.8771 16.2887C33.1926 16.2316 33.5275 16.1638 33.8818 16.0853C34.2245 15.9967 34.5626 15.9133 34.8961 15.8352C35.2388 15.7466 35.562 15.6687 35.8657 15.6014C36.1785 15.5236 36.4511 15.4569 36.6834 15.4012C36.9871 15.3339 37.2935 15.2873 37.6026 15.2613C37.9117 15.2352 38.2261 15.2504 38.5458 15.3068C38.8538 15.3531 39.1685 15.4509 39.4898 15.6003C39.8111 15.7496 40.1359 15.9661 40.4642 16.2496C41.0456 16.8799 41.3622 17.5562 41.4139 18.2784C41.463 18.98 41.3228 19.6281 40.9936 20.2226C40.7069 20.7441 40.3134 21.1642 39.813 21.4828C39.3217 21.7909 38.7675 21.9349 38.1505 21.9146C37.9933 21.907 37.81 21.8586 37.6005 21.7692C37.3911 21.6799 37.2693 21.5839 37.2352 21.4812C37.1841 21.3271 37.2088 21.1563 37.3095 20.9686C37.3985 20.7707 37.5086 20.6552 37.6396 20.6219C38.0942 20.5933 38.5205 20.4671 38.9185 20.2433C39.3049 20.0093 39.6051 19.6735 39.8193 19.2359C39.9845 18.9025 40.0457 18.5708 40.0031 18.241C39.9487 17.9011 39.8166 17.6038 39.6066 17.3492C39.394 17.074 39.103 16.8776 38.7337 16.7601C38.3618 16.6219 37.9421 16.5982 37.4748 16.689C36.7399 16.8051 36.0014 16.9729 35.2591 17.1925C34.5259 17.4015 33.7367 17.5805 32.8916 17.7295C32.4487 17.7682 32.0368 17.7237 31.6558 17.5961C31.2839 17.4579 30.963 17.2724 30.6934 17.0395C30.412 16.7965 30.1935 16.5162 30.0379 16.1987C29.8706 15.8711 29.7688 15.5268 29.7325 15.1659C29.6845 14.7948 29.7048 14.4277 29.7932 14.0646C29.8817 13.7016 30.0455 13.3578 30.2847 13.0334C30.6236 12.5936 31.072 12.2759 31.6299 12.0803C32.1761 11.8745 32.7117 11.7877 33.2366 11.8199C33.3522 11.8282 33.4582 11.8832 33.5547 11.9848C33.6602 12.0759 33.7327 12.1935 33.7721 12.3374Z" fill="#F4D03F"/>
<path d="M29.8124 12.7405L41.7519 20.9685" stroke="#F4D03F" stroke-width="1.5" stroke-linecap="round"/>
</svg>
