<svg width="27" height="25" viewBox="0 0 27 25" fill="none" xmlns="http://www.w3.org/2000/svg">
<path d="M8.55103 10L9.43294 18.1616C10.9733 18.9599 12.7403 18.9501 14.4069 18.1616L15.2121 10" stroke="#D09622" stroke-width="0.9" stroke-linejoin="round"/>
<path d="M11.4957 11.5067L11.4513 10.665C11.6015 10.6704 11.7545 10.6728 11.9096 10.6721C12.8457 10.6677 13.7156 10.5493 14.3705 10.3471C14.6942 10.2472 14.9997 10.1164 15.2371 9.94399C15.4602 9.78192 15.7393 9.49389 15.7354 9.06968C15.7311 8.61697 15.4094 8.32445 15.1683 8.16673C14.9717 8.03816 14.7328 7.93347 14.4733 7.84851C14.1297 7.27806 13.4427 6.95729 12.7595 7.16907C12.7422 7.17442 12.7251 7.18007 12.7082 7.18601C12.1659 6.48419 11.1538 6.24638 10.27 6.52036C9.4738 6.7672 8.84681 7.39473 8.67958 8.15594C8.57652 8.21946 8.47965 8.29144 8.39447 8.37334C8.2253 8.53599 8.05694 8.7849 8.05998 9.11134C8.065 9.65005 8.51175 9.96363 8.80221 10.1171C9.03187 10.2384 9.30886 10.3382 9.61396 10.418L9.67654 11.6028C9.68387 11.7415 9.71819 11.9557 9.83068 12.1551C9.95562 12.3765 10.2213 12.635 10.642 12.6128C11.0627 12.5906 11.2997 12.3055 11.4006 12.0721C11.4915 11.862 11.503 11.6454 11.4957 11.5067Z" stroke="#D09622" stroke-width="0.9"/>
<path d="M20.6972 5.76429C22.1407 7.62543 23 9.96236 23 12.5C23 18.5751 18.0751 23.5 12 23.5C5.92487 23.5 1 18.5751 1 12.5C1 6.42487 5.92487 1.5 12 1.5C14.2136 1.5 16.2744 2.15384 18 3.27893" stroke="#D09622" stroke-width="0.9" stroke-linecap="round"/>
<path d="M25.8922 6.15964C26.1355 6.21055 26.2914 6.44902 26.2405 6.69228C26.1896 6.93553 25.9511 7.09146 25.7079 7.04056L25.8922 6.15964ZM20.486 5.48799L20.0585 5.34759C20.13 5.12979 20.3538 5.00057 20.5782 5.04753L20.486 5.48799ZM19.2197 10.7865C19.1421 11.0226 18.8878 11.1512 18.6517 11.0737C18.4156 10.9961 18.287 10.7418 18.3646 10.5057L19.2197 10.7865ZM25.7079 7.04056L20.3938 5.92844L20.5782 5.04753L25.8922 6.15964L25.7079 7.04056ZM20.9136 5.62839L19.2197 10.7865L18.3646 10.5057L20.0585 5.34759L20.9136 5.62839Z" fill="#D09622"/>
</svg>
