<svg width="23" height="20" viewBox="0 0 23 20" fill="none" xmlns="http://www.w3.org/2000/svg">
<path d="M1 11H4" stroke="#2e2318" stroke-width="1.5" stroke-linecap="round"/>
<path d="M4.2445 6.08059L4.15385 5.33609L2.66484 5.5174L2.7555 6.2619L4.2445 6.08059ZM14.2454 6.08278L14.3282 5.33737L12.8373 5.1718L12.7546 5.91722L14.2454 6.08278ZM12.2245 17.4844L12.5363 18.1666C12.7762 18.057 12.9409 17.8294 12.97 17.5672L12.2245 17.4844ZM4.87756 17.4844L4.13306 17.5751C4.16346 17.8247 4.31696 18.0425 4.54186 18.1551L4.87756 17.4844ZM12.7546 5.91722L11.4791 17.4017L12.97 17.5672L14.2454 6.08278L12.7546 5.91722ZM11.9128 16.8023C9.63792 17.8418 7.26688 17.8417 5.21326 16.8138L4.54186 18.1551C7.03855 19.4048 9.88784 19.3768 12.5363 18.1666L11.9128 16.8023ZM5.62206 17.3938L4.2445 6.08059L2.7555 6.2619L4.13306 17.5751L5.62206 17.3938Z" fill="#2e2318"/>
<path d="M8.21703 8.49275L8.14303 7.08372C8.27318 7.0543 8.36599 7.03579 8.51625 7.03508C9.81173 7.02894 11.0126 6.8641 11.9134 6.58435C12.3591 6.44593 12.7742 6.26639 13.0937 6.03294C13.3962 5.81198 13.755 5.43289 13.7499 4.88459C13.7445 4.29922 13.3302 3.91314 13.0014 3.69682C12.7285 3.51725 12.3928 3.3706 12.0251 3.25161C11.5726 2.46917 10.6446 2.02402 9.72151 2.31185C9.67936 2.325 9.63802 2.33947 9.59749 2.35521C8.87844 1.3702 7.48756 1.02263 6.26146 1.40495C5.16437 1.74706 4.31357 2.61939 4.10129 3.66361C3.95036 3.75452 3.80956 3.85783 3.68762 3.97577C3.46232 4.19367 3.24615 4.51929 3.25005 4.9411C3.25395 5.36302 3.50291 5.67479 3.68615 5.85448C3.88878 6.05318 4.14666 6.22369 4.41333 6.36629C4.80112 6.57366 5.27053 6.75531 5.76543 6.88944L5.85616 8.61726C5.86589 8.80256 5.9116 9.08663 6.05878 9.34899C6.22106 9.63827 6.56435 9.97449 7.11007 9.9455C7.65556 9.91652 7.96132 9.5461 8.09224 9.24162C8.21104 8.96531 8.22676 8.67808 8.21703 8.49275Z" stroke="#2e2318" stroke-width="1.5"/>
<path d="M13 11H22M22 11L19 8M22 11L19 14" stroke="#2e2318" stroke-width="1.5" stroke-linecap="round" stroke-linejoin="round"/>
</svg>
