<svg width="14" height="14" viewBox="0 0 14 14" fill="none" xmlns="http://www.w3.org/2000/svg">
<circle cx="7" cy="7" r="6.35" stroke="#8C4B00" stroke-width="1.3"/>
<path d="M8.77466 4.53164H8.81524L8.82359 4.49193L9.16174 2.88412L9.17442 2.82383H9.11281H7.505H7.46442L7.45607 2.86353L7.11792 4.47135L7.10524 4.53164H7.16685H8.77466ZM8.56411 11.25H8.60471L8.61305 11.2103L8.86188 10.0235L8.87451 9.96328H8.81294H7.51565L8.51094 5.264L8.52373 5.20364H8.46203H5.82062H5.77997L5.77167 5.24343L5.52285 6.43653L5.51029 6.49674H5.57179H6.83073L6.09278 9.96328H4.81255H4.77195L4.76361 10.003L4.51478 11.1897L4.50215 11.25H4.56372H8.56411Z" fill="#8C4B00" stroke="#8C4B00" stroke-width="0.1"/>
</svg>
