<svg width="27" height="19" viewBox="0 0 27 19" fill="none" xmlns="http://www.w3.org/2000/svg">
<path d="M22 8.25806C21.2265 4.12114 17.7509 1 13.5803 1C9.66856 1 6.3682 3.74572 5.33537 7.5" stroke="#F4D03F" stroke-width="1.5" stroke-linecap="round"/>
<path d="M4.99996 10.7419C5.77343 14.8789 9.24905 18 13.4197 18C17.3314 18 20.6318 15.2543 21.6646 11.5" stroke="#F4D03F" stroke-width="1.5" stroke-linecap="round"/>
<path d="M25.0772 5.76653C25.3039 5.41985 25.2066 4.95505 24.86 4.72836C24.5133 4.50168 24.0485 4.59895 23.8218 4.94563L25.0772 5.76653ZM22.1541 8.86657L21.8157 9.53589C22.1566 9.70828 22.5727 9.5968 22.7818 9.27703L22.1541 8.86657ZM18.7493 6.3048C18.3797 6.11791 17.9285 6.26607 17.7416 6.63572C17.5547 7.00538 17.7029 7.45655 18.0725 7.64344L18.7493 6.3048ZM23.8218 4.94563L21.5264 8.45612L22.7818 9.27703L25.0772 5.76653L23.8218 4.94563ZM22.4925 8.19725L18.7493 6.3048L18.0725 7.64344L21.8157 9.53589L22.4925 8.19725Z" fill="#F4D03F"/>
<path d="M1.97224 13.2316C1.74556 13.5783 1.84283 14.0431 2.18951 14.2698C2.53619 14.4965 3.00099 14.3992 3.22768 14.0525L1.97224 13.2316ZM4.8954 10.1316L5.23379 9.46227C4.89283 9.28989 4.47677 9.40137 4.26768 9.72114L4.8954 10.1316ZM8.30016 12.6934C8.66982 12.8803 9.12099 12.7321 9.30788 12.3624C9.49477 11.9928 9.3466 11.5416 8.97695 11.3547L8.30016 12.6934ZM3.22768 14.0525L5.52312 10.542L4.26768 9.72114L1.97224 13.2316L3.22768 14.0525ZM4.55701 10.8009L8.30016 12.6934L8.97695 11.3547L5.23379 9.46227L4.55701 10.8009Z" fill="#F4D03F"/>
</svg>
