<svg width="73" height="16" viewBox="0 0 73 16" fill="none" xmlns="http://www.w3.org/2000/svg">
<path d="M4.72375 5.46875C5.43209 4.76042 6.28625 4.40625 7.28625 4.40625C8.28625 4.40625 9.13 4.76042 9.8175 5.46875C10.5258 6.15625 10.88 7 10.88 8C10.88 9 10.5258 9.85417 9.8175 10.5625C9.13 11.25 8.28625 11.5938 7.28625 11.5938C6.28625 11.5938 5.43209 11.25 4.72375 10.5625C4.03625 9.85417 3.6925 9 3.6925 8C3.6925 7 4.03625 6.15625 4.72375 5.46875ZM5.63 9.65625C6.08834 10.1146 6.64042 10.3438 7.28625 10.3438C7.93209 10.3438 8.48417 10.1146 8.9425 9.65625C9.40084 9.19792 9.63 8.64583 9.63 8C9.63 7.35417 9.40084 6.80208 8.9425 6.34375C8.48417 5.88542 7.93209 5.65625 7.28625 5.65625C6.64042 5.65625 6.08834 5.88542 5.63 6.34375C5.17167 6.80208 4.9425 7.35417 4.9425 8C4.9425 8.64583 5.17167 9.19792 5.63 9.65625ZM11.5988 3.6875C11.7654 3.83333 11.8488 4.02083 11.8488 4.25C11.8488 4.47917 11.7654 4.67708 11.5988 4.84375C11.4529 5.01042 11.2654 5.09375 11.0363 5.09375C10.8071 5.09375 10.6092 5.01042 10.4425 4.84375C10.2758 4.67708 10.1925 4.47917 10.1925 4.25C10.1925 4.02083 10.2758 3.83333 10.4425 3.6875C10.6092 3.52083 10.8071 3.4375 11.0363 3.4375C11.2654 3.4375 11.4529 3.52083 11.5988 3.6875ZM14.255 5.125C14.2758 5.6875 14.2863 6.64583 14.2863 8C14.2863 9.35417 14.2758 10.3125 14.255 10.875C14.1925 12.1458 13.8071 13.1354 13.0988 13.8438C12.4113 14.5312 11.4321 14.8958 10.1613 14.9375C9.59875 14.9792 8.64042 15 7.28625 15C5.93209 15 4.97375 14.9792 4.41125 14.9375C3.14042 14.875 2.16125 14.5 1.47375 13.8125C1.20292 13.5625 0.984172 13.2708 0.817505 12.9375C0.650838 12.6042 0.525838 12.2812 0.442505 11.9688C0.380005 11.6562 0.348755 11.2917 0.348755 10.875C0.307088 10.3125 0.286255 9.35417 0.286255 8C0.286255 6.64583 0.307088 5.67708 0.348755 5.09375C0.411255 3.84375 0.786255 2.875 1.47375 2.1875C2.16125 1.47917 3.14042 1.09375 4.41125 1.03125C4.97375 1.01042 5.93209 1 7.28625 1C8.64042 1 9.59875 1.01042 10.1613 1.03125C11.4321 1.09375 12.4113 1.47917 13.0988 2.1875C13.8071 2.875 14.1925 3.85417 14.255 5.125ZM12.755 12.125C12.8175 11.9583 12.8696 11.75 12.9113 11.5C12.9529 11.2292 12.9842 10.9167 13.005 10.5625C13.0258 10.1875 13.0363 9.88542 13.0363 9.65625C13.0363 9.42708 13.0363 9.10417 13.0363 8.6875C13.0363 8.27083 13.0363 8.04167 13.0363 8C13.0363 7.9375 13.0363 7.70833 13.0363 7.3125C13.0363 6.89583 13.0363 6.57292 13.0363 6.34375C13.0363 6.11458 13.0258 5.82292 13.005 5.46875C12.9842 5.09375 12.9529 4.78125 12.9113 4.53125C12.8696 4.26042 12.8175 4.04167 12.755 3.875C12.505 3.22917 12.0571 2.78125 11.4113 2.53125C11.2446 2.46875 11.0258 2.41667 10.755 2.375C10.505 2.33333 10.1925 2.30208 9.8175 2.28125C9.46334 2.26042 9.17167 2.25 8.9425 2.25C8.73417 2.25 8.41125 2.25 7.97375 2.25C7.55709 2.25 7.32792 2.25 7.28625 2.25C7.24459 2.25 7.01542 2.25 6.59875 2.25C6.18209 2.25 5.85917 2.25 5.63 2.25C5.40084 2.25 5.09875 2.26042 4.72375 2.28125C4.36959 2.30208 4.05709 2.33333 3.78625 2.375C3.53625 2.41667 3.32792 2.46875 3.16125 2.53125C2.51542 2.78125 2.0675 3.22917 1.8175 3.875C1.755 4.04167 1.70292 4.26042 1.66125 4.53125C1.61959 4.78125 1.58834 5.09375 1.5675 5.46875C1.54667 5.82292 1.53625 6.11458 1.53625 6.34375C1.53625 6.55208 1.53625 6.875 1.53625 7.3125C1.53625 7.72917 1.53625 7.95833 1.53625 8C1.53625 8.08333 1.53625 8.28125 1.53625 8.59375C1.53625 8.88542 1.53625 9.13542 1.53625 9.34375C1.53625 9.53125 1.53625 9.78125 1.53625 10.0938C1.55709 10.4062 1.57792 10.6771 1.59875 10.9062C1.61959 11.1146 1.65084 11.3333 1.6925 11.5625C1.73417 11.7917 1.77584 11.9792 1.8175 12.125C2.08834 12.7708 2.53625 13.2188 3.16125 13.4688C3.32792 13.5312 3.53625 13.5833 3.78625 13.625C4.05709 13.6667 4.36959 13.6979 4.72375 13.7188C5.09875 13.7396 5.39042 13.75 5.59875 13.75C5.82792 13.75 6.15084 13.75 6.5675 13.75C7.005 13.75 7.24459 13.75 7.28625 13.75C7.34875 13.75 7.57792 13.75 7.97375 13.75C8.39042 13.75 8.71334 13.75 8.9425 13.75C9.17167 13.75 9.46334 13.7396 9.8175 13.7188C10.1925 13.6979 10.505 13.6667 10.755 13.625C11.0258 13.5833 11.2446 13.5312 11.4113 13.4688C12.0571 13.1979 12.505 12.75 12.755 12.125Z" fill="white"/>
<path d="M45.5588 4.75C45.5796 4.83333 45.59 4.96875 45.59 5.15625C45.59 6.26042 45.3817 7.36458 44.965 8.46875C44.5483 9.55208 43.9546 10.5521 43.1838 11.4688C42.4338 12.3646 41.4546 13.0938 40.2463 13.6562C39.0379 14.2188 37.7046 14.5 36.2463 14.5C34.4129 14.5 32.7358 14.0104 31.215 13.0312C31.4442 13.0521 31.7046 13.0625 31.9963 13.0625C33.5171 13.0625 34.8817 12.5938 36.09 11.6562C35.3608 11.6562 34.715 11.4479 34.1525 11.0312C33.6108 10.5938 33.2358 10.0521 33.0275 9.40625C33.2358 9.42708 33.4338 9.4375 33.6213 9.4375C33.9129 9.4375 34.2046 9.40625 34.4963 9.34375C33.9963 9.23958 33.5483 9.03125 33.1525 8.71875C32.7567 8.40625 32.4442 8.03125 32.215 7.59375C31.9858 7.13542 31.8713 6.64583 31.8713 6.125V6.0625C32.3296 6.33333 32.8192 6.47917 33.34 6.5C32.3608 5.83333 31.8713 4.91667 31.8713 3.75C31.8713 3.16667 32.0275 2.61458 32.34 2.09375C33.1525 3.11458 34.1421 3.92708 35.3088 4.53125C36.4963 5.13542 37.7567 5.46875 39.09 5.53125C39.0483 5.28125 39.0275 5.03125 39.0275 4.78125C39.0275 3.88542 39.34 3.11458 39.965 2.46875C40.6108 1.82292 41.3817 1.5 42.2775 1.5C43.2358 1.5 44.0379 1.84375 44.6838 2.53125C45.4338 2.38542 46.1317 2.125 46.7775 1.75C46.5275 2.52083 46.0483 3.125 45.34 3.5625C45.965 3.47917 46.59 3.30208 47.215 3.03125C46.7567 3.69792 46.2046 4.27083 45.5588 4.75Z" fill="white"/>
<path d="M72.3488 9.3125H70.1516V15.875H67.2219V9.3125H64.8488V6.58789H67.2219V4.53711C67.2219 3.75586 67.3684 3.0918 67.6613 2.54492C67.9543 1.99805 68.3645 1.58789 68.8918 1.31445C69.4387 1.02148 70.0637 0.875 70.7668 0.875C71.0793 0.875 71.4113 0.894531 71.7629 0.933594C72.1145 0.953125 72.3879 0.982422 72.5832 1.02148L72.8762 1.05078V3.36523H71.7043C71.1574 3.36523 70.757 3.51172 70.5031 3.80469C70.2688 4.07812 70.1516 4.41992 70.1516 4.83008V6.58789H72.759L72.3488 9.3125Z" fill="white"/>
</svg>
