<svg width="16" height="17" viewBox="0 0 16 17" fill="none" xmlns="http://www.w3.org/2000/svg">
<mask id="path-1-inside-1" fill="white">
<path d="M3.14596 10.146C2.94399 9.94399 2.83802 9.66528 2.8548 9.38014L3.12978 4.70537C3.15955 4.19932 3.56328 3.79559 4.06934 3.76582L8.7441 3.49084C9.02924 3.47406 9.30795 3.58003 9.50993 3.782L14.8492 9.12132C15.2398 9.51184 15.2398 10.145 14.8492 10.5355L9.89949 15.4853C9.50897 15.8758 8.87581 15.8758 8.48528 15.4853L3.14596 10.146Z"/>
</mask>
<path d="M8.7441 3.49084L8.83218 4.98825L8.7441 3.49084ZM8.44927 4.84266L13.7886 10.182L15.9099 8.06066L10.5706 2.72134L8.44927 4.84266ZM13.7886 9.47487L8.83883 14.4246L10.9602 16.5459L15.9099 11.5962L13.7886 9.47487ZM9.54594 14.4246L4.20662 9.0853L2.0853 11.2066L7.42462 16.5459L9.54594 14.4246ZM4.35221 9.46822L4.62719 4.79346L1.63237 4.61729L1.35739 9.29205L4.35221 9.46822ZM4.15742 5.26323L8.83218 4.98825L8.65601 1.99342L3.98125 2.26841L4.15742 5.26323ZM4.62719 4.79346C4.61231 5.04649 4.41045 5.24835 4.15742 5.26323L3.98125 2.26841C2.71611 2.34283 1.70679 3.35215 1.63237 4.61729L4.62719 4.79346ZM8.83883 14.4246C9.0341 14.2294 9.35068 14.2294 9.54594 14.4246L7.42462 16.5459C8.40093 17.5223 9.98384 17.5223 10.9602 16.5459L8.83883 14.4246ZM13.7886 10.182C13.5933 9.98672 13.5933 9.67014 13.7886 9.47487L15.9099 11.5962C16.8862 10.6199 16.8862 9.03697 15.9099 8.06066L13.7886 10.182ZM10.5706 2.72134C10.0656 2.2164 9.36888 1.95149 8.65601 1.99342L8.83218 4.98825C8.68961 4.99663 8.55025 4.94365 8.44927 4.84266L10.5706 2.72134ZM4.20662 9.0853C4.30761 9.18629 4.3606 9.32565 4.35221 9.46822L1.35739 9.29205C1.31545 10.0049 1.58036 10.7017 2.0853 11.2066L4.20662 9.0853Z" fill="#2E2318" mask="url(#path-1-inside-1)"/>
<circle cx="6.5" cy="7" r="1" fill="#2E2318"/>
</svg>
