<svg width="224" height="21" viewBox="0 0 224 21" fill="none" xmlns="http://www.w3.org/2000/svg">
<path d="M66.4763 13.5051C66.4876 14.0522 66.405 14.5972 66.232 15.1165C66.0847 15.5496 65.855 15.9504 65.5555 16.2969C65.2602 16.6307 64.9028 16.9043 64.5032 17.1026C64.0724 17.3162 63.6184 17.4796 63.1502 17.5898C62.6312 17.712 62.1034 17.7934 61.5717 17.8334C61.0079 17.8334 60.4316 17.8334 59.8428 17.8334H48.2671V5.14823L45.843 1.90668H59.6549C60.1059 1.90668 60.5632 1.90668 61.0267 1.90668C61.47 1.94017 61.9099 2.00909 62.3421 2.11279C62.7459 2.21104 63.1369 2.35566 63.5072 2.54375C63.8634 2.72679 64.182 2.97464 64.4468 3.2745C64.7215 3.59374 64.932 3.9627 65.0669 4.36126C65.2263 4.84469 65.3025 5.35149 65.2924 5.86025C65.3341 6.74345 65.0612 7.61289 64.522 8.31483C63.8802 9.03213 62.9984 9.49174 62.0415 9.60771C62.7175 9.64498 63.3864 9.76454 64.0334 9.96372C64.5317 10.1172 64.9924 10.3725 65.3864 10.7132C65.7355 11.0235 66.0005 11.4167 66.1568 11.8562C66.3625 12.382 66.4707 12.9407 66.4763 13.5051V13.5051ZM61.1019 6.60974C61.1322 6.4173 61.1322 6.22132 61.1019 6.02888C61.0366 5.83839 60.9195 5.66973 60.7636 5.54171C60.569 5.38696 60.3454 5.27231 60.1059 5.20444C59.7571 5.10957 59.3963 5.06539 59.0348 5.07328H52.6456V8.08999H58.9972C59.3429 8.06456 59.6839 7.9953 60.012 7.88388C60.25 7.82166 60.4735 7.71343 60.6697 7.56534C60.8256 7.44526 60.9432 7.28249 61.0079 7.09691C61.0621 6.93975 61.0938 6.77574 61.1019 6.60974ZM62.0415 12.9242C62.0515 12.6198 61.987 12.3175 61.8535 12.0436C61.7201 11.86 61.5378 11.7172 61.3274 11.6313C61.0047 11.4955 60.6619 11.4133 60.3126 11.3877C59.8992 11.3877 59.3981 11.3877 58.8093 11.3877H52.6456V14.6293H58.8657C59.4419 14.6293 59.9431 14.6293 60.369 14.6293C60.7187 14.6062 61.0618 14.5238 61.3838 14.3857C61.629 14.2772 61.8331 14.0934 61.9663 13.8611C62.0708 13.5602 62.0966 13.2378 62.0415 12.9242V12.9242Z" fill="white"/>
<path d="M68.2053 17.8146V1.90668H84.3662V5.29813H72.6402V7.88388H83.7649V11.3128H72.6402V14.4232H84.5917V17.8146H68.2053Z" fill="white"/>
<path d="M86.7714 17.8146V1.90668H102.932V5.29813H91.2062V7.88388H102.331V11.3128H91.2062V14.4232H103.101V17.8146H86.7714Z" fill="white"/>
<path d="M109.641 17.8147H105.262V1.90671H116.068C117.088 1.87816 118.107 1.99809 119.093 2.26272C119.816 2.45577 120.488 2.80077 121.066 3.27453C121.57 3.69926 121.952 4.24853 122.175 4.8672C122.41 5.53524 122.524 6.23932 122.513 6.94704C122.526 7.54627 122.431 8.14292 122.231 8.70835C122.057 9.18314 121.796 9.62152 121.461 10.0012C121.137 10.3654 120.756 10.6754 120.333 10.9193C119.904 11.1696 119.451 11.3767 118.98 11.5377L126.929 21H121.893L114.376 11.9124H109.678L109.641 17.8147ZM118.154 6.9283C118.163 6.66139 118.125 6.3949 118.041 6.14134C117.957 5.92492 117.805 5.74106 117.609 5.61669C117.362 5.46319 117.087 5.36119 116.801 5.3169C116.382 5.28003 115.96 5.28003 115.542 5.3169H109.641V8.6334H115.542C115.96 8.67036 116.382 8.67036 116.801 8.6334C117.088 8.58961 117.363 8.48758 117.609 8.3336C117.805 8.20923 117.957 8.02538 118.041 7.80896C118.137 7.5258 118.175 7.22641 118.154 6.9283V6.9283Z" fill="white"/>
<path d="M124.317 15.1165V1.90668H139.576V5.29813H128.621V8.07125H139.088V11.4627H128.621V19.9694L124.317 15.1165Z" fill="white"/>
<path d="M162.521 9.87003C162.549 11.1228 162.292 12.3657 161.769 13.5051C161.273 14.5416 160.532 15.442 159.608 16.1283C158.587 16.8712 157.432 17.4118 156.207 17.721C154.734 18.0989 153.218 18.2816 151.697 18.2643C150.176 18.2801 148.66 18.0974 147.187 17.721C145.949 17.4137 144.782 16.8731 143.748 16.1283C142.819 15.4426 142.071 14.5425 141.568 13.5051C141.037 12.3742 140.774 11.1371 140.798 9.88877C140.774 8.64047 141.037 7.40336 141.568 6.27247C142.071 5.23507 142.819 4.3349 143.748 3.64925C144.781 2.89825 145.948 2.35127 147.187 2.03784C150.15 1.31877 153.243 1.31877 156.207 2.03784C157.432 2.34699 158.587 2.88765 159.608 3.63051C160.532 4.31676 161.273 5.21717 161.769 6.25373C162.289 7.38739 162.546 8.62355 162.521 9.87003V9.87003ZM158.161 9.87003C158.161 9.26568 158.066 8.6651 157.879 8.08999C157.678 7.48357 157.33 6.93633 156.865 6.49732C156.297 5.97846 155.624 5.58849 154.891 5.35434C153.858 5.03533 152.778 4.8897 151.697 4.92339C150.928 4.91509 150.16 4.98414 149.404 5.1295C148.812 5.24217 148.237 5.43113 147.694 5.69161C147.251 5.90773 146.845 6.1923 146.491 6.53479C146.183 6.83683 145.923 7.18442 145.721 7.56534C145.53 7.92485 145.39 8.3097 145.308 8.70832C145.23 9.09701 145.192 9.4925 145.195 9.88877C145.192 10.2913 145.23 10.693 145.308 11.088C145.39 11.4866 145.529 11.8715 145.721 12.2309C145.922 12.6127 146.182 12.9605 146.491 13.2615C146.846 13.5978 147.252 13.8761 147.694 14.0859C148.238 14.3447 148.813 14.5336 149.404 14.648C150.159 14.7935 150.928 14.8626 151.697 14.8542C152.778 14.8878 153.858 14.7422 154.891 14.4232C155.624 14.189 156.297 13.7991 156.865 13.2802C157.338 12.8254 157.687 12.2579 157.879 11.6313C158.07 11.0632 158.171 10.4691 158.18 9.87003H158.161Z" fill="white"/>
<path d="M168.572 17.8147H164.268V1.90672H175.074C176.069 1.88538 177.062 2.00525 178.024 2.26273C178.747 2.45578 179.419 2.80077 179.997 3.27454C180.5 3.69927 180.883 4.24854 181.106 4.86721C181.34 5.53524 181.455 6.23933 181.444 6.94705C181.457 7.54628 181.362 8.14293 181.162 8.70836C180.988 9.18315 180.727 9.62153 180.392 10.0012C180.068 10.3654 179.687 10.6754 179.264 10.9194C178.835 11.1696 178.382 11.3767 177.911 11.5377L183.154 17.8147H178.118L173.288 11.9499H168.591L168.572 17.8147ZM177.084 6.92831C177.094 6.66139 177.056 6.39491 176.972 6.14135C176.887 5.92493 176.736 5.74107 176.539 5.6167C176.293 5.4632 176.018 5.3612 175.731 5.3169C175.313 5.28004 174.891 5.28004 174.472 5.3169H168.572V8.63341H174.472C174.891 8.67037 175.313 8.67037 175.731 8.63341C176.018 8.58962 176.293 8.48759 176.539 8.33361C176.736 8.20924 176.887 8.02538 176.972 7.80897C177.074 7.52709 177.119 7.22767 177.103 6.92831H177.084Z" fill="white"/>
<path d="M194.222 1.49445C195.685 1.48312 197.145 1.61492 198.582 1.88793C199.861 2.12942 201.117 2.47407 202.34 2.91848V6.81584C201.296 6.24049 200.185 5.79377 199.033 5.48549C198.347 5.29977 197.65 5.15585 196.947 5.05453C196.169 4.94189 195.384 4.88554 194.598 4.8859C193.703 4.8769 192.81 4.95219 191.93 5.11074C191.282 5.23892 190.652 5.44007 190.05 5.71034C189.561 5.92309 189.111 6.21425 188.716 6.57225C188.386 6.87581 188.107 7.23005 187.889 7.62154C187.694 7.9795 187.555 8.36488 187.476 8.76452C187.401 9.13454 187.363 9.51119 187.363 9.88876C187.364 10.2343 187.396 10.5792 187.457 10.9193C187.53 11.3035 187.656 11.6757 187.833 12.0248C188.027 12.4172 188.28 12.7775 188.585 13.0928C188.956 13.4634 189.388 13.7676 189.862 13.9922C190.46 14.2824 191.091 14.4964 191.742 14.6293C192.608 14.8023 193.489 14.8839 194.372 14.8729H195.707L196.74 14.7417L197.623 14.5356L198.469 14.292V12.4183H193.583V8.82073H202.716V16.9527C202.099 17.1596 201.472 17.3348 200.837 17.4774C200.123 17.6398 199.39 17.7772 198.638 17.8896C197.887 18.002 197.129 18.0894 196.364 18.1519C195.6 18.1519 194.886 18.1519 194.222 18.1519C193.216 18.1553 192.211 18.0864 191.215 17.9458C190.301 17.8195 189.402 17.6061 188.528 17.3087C187.667 17.0787 186.84 16.7386 186.067 16.2969C185.4 15.8653 184.81 15.3272 184.319 14.7042C183.824 14.0681 183.443 13.3519 183.191 12.5869C182.915 11.7146 182.782 10.8035 182.797 9.88876C182.784 8.97889 182.924 8.07328 183.21 7.20932C183.471 6.4352 183.865 5.71237 184.375 5.07327C184.909 4.44284 185.544 3.90471 186.254 3.4806C186.973 2.98284 187.749 2.57388 188.566 2.26268C189.448 1.99116 190.354 1.80296 191.272 1.70056C192.249 1.56099 193.235 1.49211 194.222 1.49445V1.49445Z" fill="white"/>
<path d="M204.858 17.8146V1.90668H223.65L220.944 5.29813H209.218V7.88388H220.343V11.3128H209.218V14.4232H221.113V17.8146H204.858Z" fill="white"/>
<path d="M38.8659 1.67219L18.1107 0.0104386C17.32 -0.0528697 16.5333 0.173348 15.8984 0.646556C15.2867 1.10257 14.5331 1.32976 13.7698 1.28829L0 0.540195C0.360308 5.46843 8.3046 8.02815 18.8255 11.3969C19.1436 11.4988 19.2515 11.894 19.0271 12.1403L13.5737 18.1262C13.2996 18.4272 13.5261 18.9079 13.934 18.8908L33.3446 18.0761C33.9781 18.0495 34.396 17.4088 34.1628 16.8222C33.7869 15.8765 33.2531 14.5262 32.8011 13.3538C31.5605 10.1364 31.1069 8.55793 39.2163 2.85726C39.7262 2.49882 39.49 1.69037 38.8659 1.67219Z" fill="#F4D03F"/>
<path d="M14.2169 9.90326C22.2662 6.55404 30.7228 3.98043 39.4922 2.27637C39.5088 2.4887 39.425 2.71063 39.2164 2.85725C31.107 8.55792 31.5606 10.1364 32.8012 13.3538C33.2532 14.5262 33.787 15.8765 34.1629 16.8222C34.396 17.4088 33.9782 18.0495 33.3446 18.0761L13.9341 18.8908C13.5262 18.9079 13.2996 18.4272 13.5738 18.1262L19.0272 12.1403C19.2516 11.894 19.1437 11.4988 18.8256 11.3969C17.2237 10.884 15.6816 10.3899 14.2169 9.90326Z" fill="url(#paint0_linear)"/>
<defs>
<linearGradient id="paint0_linear" x1="25.0643" y1="6.03174" x2="25.0643" y2="16.6487" gradientUnits="userSpaceOnUse">
<stop stop-color="#D7A034"/>
<stop offset="1" stop-color="#F4D03F"/>
</linearGradient>
</defs>
</svg>
