<svg width="27" height="20" viewBox="0 0 27 20" fill="none" xmlns="http://www.w3.org/2000/svg">
<path d="M25.8719 5.04761L24.6059 17.8776C22.4067 18.9181 20.0881 19.0337 18 18.1931" stroke="#2E2318" stroke-width="1.2" stroke-linejoin="round"/>
<path fill-rule="evenodd" clip-rule="evenodd" d="M19.3631 6.34564L20.6347 7.66993L20.6107 7.21498C20.7215 7.21664 20.8332 7.21721 20.9456 7.21668C22.3405 7.21012 23.6487 7.0341 24.6467 6.72597C25.1381 6.57425 25.6231 6.36978 26.011 6.08807C26.3704 5.82701 26.8808 5.32012 26.8735 4.54404C26.8658 3.71632 26.2787 3.20473 25.8972 2.95513C25.6086 2.76633 25.2705 2.61338 24.9118 2.48898C24.3423 1.637 23.2963 1.14899 22.227 1.41824C21.3144 0.402892 19.7674 0.0943772 18.445 0.504307C17.2904 0.862264 16.3394 1.73337 15.9788 2.83228C16.0252 2.87328 16.0703 2.91642 16.1137 2.96167L16.9328 3.81468C16.9622 3.80071 16.9924 3.78689 17.0234 3.77325C17.0371 2.86252 17.7412 1.97885 18.8004 1.65049C19.6654 1.38231 20.5448 1.55357 21.1248 2.03032C21.3984 2.25521 21.6054 2.5481 21.713 2.8949C21.7368 2.97188 21.7551 3.04945 21.7681 3.12727C21.8555 2.98992 21.9677 2.86968 22.101 2.77459C22.2054 2.70012 22.3227 2.64107 22.4509 2.60131C22.5792 2.56155 22.7093 2.54391 22.8375 2.54627L22.8614 2.54695C23.3943 2.56714 23.8902 2.93206 24.0785 3.48924C25.0537 3.7482 25.6696 4.12858 25.6736 4.55521C25.6806 5.30733 23.7832 5.93366 21.3578 6.00923C21.2507 6.01257 21.1425 6.01483 21.0334 6.01598L20.9399 6.0167C20.8077 6.01732 20.6768 6.0163 20.5472 6.01369C20.2325 6.00736 19.9264 5.99169 19.632 5.96758C19.5339 5.95954 19.4371 5.95057 19.3417 5.9407L19.3631 6.34564Z" fill="#2E2318"/>
<path d="M12.4601 8.56874H14.4994V4.51929L21.527 11.6347L14.4994 18.7501V14.7006H11.9401" stroke="#2E2318" stroke-width="1.2" stroke-linejoin="round"/>
<path d="M1.03015 5.22348L2.39751 17.8775C4.65581 19.0479 7.24664 19.0335 9.69007 17.8775L10.9561 5.0475" stroke="#2E2318" stroke-width="1.2" stroke-linejoin="round"/>
<path d="M1.60309 5.83538C1.96385 6.02594 2.41908 6.18163 2.93131 6.30242L3.03401 8.24667C3.0434 8.42448 3.08778 8.69178 3.22429 8.9337C3.37324 9.19768 3.67692 9.48826 4.15551 9.46298C4.6341 9.4377 4.90547 9.11675 5.02579 8.83855C5.13605 8.58359 5.15203 8.3131 5.14264 8.13529L5.06115 6.59249C5.37418 6.60985 5.6971 6.61816 6.02695 6.61661C7.37982 6.61024 8.62656 6.43889 9.55387 6.15259C10.0137 6.01061 10.4293 5.83003 10.7425 5.60252C11.0415 5.38534 11.3623 5.03693 11.3577 4.54954C11.3529 4.029 10.9818 3.67232 10.6529 3.45712C10.3663 3.26966 10.0034 3.1152 9.59805 2.98989C9.17469 2.19824 8.25755 1.74905 7.35733 2.02813C7.26708 2.05611 7.1806 2.09048 7.09818 2.13056C6.42341 1.07806 4.98948 0.679662 3.70677 1.07731C2.57888 1.42697 1.72377 2.3282 1.54278 3.38443C1.36557 3.48401 1.20349 3.59759 1.06815 3.72775C0.853093 3.93459 0.660227 4.23043 0.663717 4.60541C0.669494 5.226 1.18789 5.61606 1.60309 5.83538Z" stroke="#2E2318" stroke-width="1.2"/>
<path d="M6.91821 9.21154C8.87494 9.21154 10.5 8.5 10.5 8.5" stroke="#2E2318" stroke-width="1.2" stroke-linecap="round"/>
<path d="M6.91821 11.4845C8.34798 11.4845 9.68278 11.1046 10.298 10.9" stroke="#2E2318" stroke-width="1.2" stroke-linecap="round"/>
<path d="M6.91821 13.7729C8.11478 13.7729 9.24482 13.5068 9.94225 13.3" stroke="#2E2318" stroke-width="1.2" stroke-linecap="round"/>
<path d="M6.91821 16.0731C7.92851 16.0731 8.89139 15.8834 9.58648 15.7" stroke="#2E2318" stroke-width="1.2" stroke-linecap="round"/>
</svg>
