<svg width="25" height="25" viewBox="0 0 25 25" fill="none" xmlns="http://www.w3.org/2000/svg">
<path fill-rule="evenodd" clip-rule="evenodd" d="M12.5 16.6525C10.2096 16.6525 8.34754 14.7904 8.34754 12.5C8.34754 10.2096 10.2096 8.34658 12.5 8.34658C14.7904 8.34658 16.6525 10.2096 16.6525 12.5C16.6525 14.7904 14.7904 16.6525 12.5 16.6525ZM14.3218 24H10.6772C10.0246 22.1619 9.92496 21.4 8.97812 21.0071C8.015 20.6056 7.31925 21.1336 5.65654 21.9195L3.07958 19.3425C3.91621 17.582 4.38962 16.9802 3.99287 16.0219C3.59804 15.0722 2.85054 14.9802 1 14.3228V10.6772C2.82658 10.0275 3.599 9.92783 3.99287 8.97812C4.38675 8.02842 3.92483 7.43233 3.07958 5.65654L5.65654 3.08054C7.325 3.87404 8.01979 4.38867 8.97717 3.99383C9.92783 3.599 10.0141 2.85821 10.6782 1H14.3218C14.9754 2.83808 15.077 3.60092 16.0219 3.99287C16.9812 4.39154 17.6597 3.87883 19.3444 3.08054L21.9195 5.65654C21.078 7.42658 20.6152 8.03033 21.0071 8.97717C21.401 9.92783 22.1495 10.0189 24 10.6772V14.3237C22.1734 14.9725 21.4 15.0731 21.0062 16.0228C20.62 16.9572 21.0483 17.5188 21.9204 19.3425L19.3444 21.9195C17.6884 21.1336 16.9802 20.6065 16.0324 21.0042C15.0856 21.3972 14.9974 22.1025 14.3218 24Z" stroke="#2F2319" stroke-width="1.2" stroke-linecap="round" stroke-linejoin="round"/>
</svg>
