<svg width="27" height="25" viewBox="0 0 27 25" fill="none" xmlns="http://www.w3.org/2000/svg">
<path d="M8.50037 9.53081L9.43297 18.1615C10.9733 18.9598 12.7403 18.95 14.4069 18.1615L15.2703 9.41077" stroke="#2E2318" stroke-width="1.2" stroke-linejoin="round"/>
<path d="M11.4957 11.5067L11.4513 10.665C11.6015 10.6704 11.7545 10.6728 11.9096 10.6721C12.8457 10.6677 13.7156 10.5493 14.3705 10.3471C14.6942 10.2472 14.9997 10.1164 15.2371 9.94401C15.4602 9.78194 15.7393 9.49391 15.7354 9.0697C15.7311 8.61699 15.4094 8.32447 15.1683 8.16675C14.9717 8.03818 14.7328 7.93349 14.4733 7.84853C14.1297 7.27808 13.4427 6.95731 12.7595 7.16909C12.7422 7.17444 12.7251 7.18009 12.7082 7.18603C12.1659 6.48421 11.1538 6.2464 10.27 6.52038C9.47377 6.76722 8.84678 7.39475 8.67955 8.15596C8.57649 8.21948 8.47962 8.29146 8.39444 8.37336C8.22527 8.53601 8.05691 8.78492 8.05995 9.11136C8.06497 9.65007 8.51172 9.96365 8.80218 10.1171C9.03184 10.2384 9.30883 10.3382 9.61393 10.418L9.67651 11.6028C9.68384 11.7415 9.71816 11.9557 9.83065 12.1551C9.95559 12.3765 10.2213 12.635 10.642 12.6128C11.0627 12.5906 11.2997 12.3055 11.4006 12.0721C11.4915 11.862 11.503 11.6454 11.4957 11.5067Z" stroke="#2E2318" stroke-width="1.2"/>
<path d="M20.6972 5.76429C22.1407 7.62543 23 9.96236 23 12.5C23 18.5751 18.0751 23.5 12 23.5C5.92487 23.5 1 18.5751 1 12.5C1 6.42487 5.92487 1.5 12 1.5C14.2136 1.5 16.2744 2.15384 18 3.27893" stroke="#2E2318" stroke-width="1.2" stroke-linecap="round"/>
<path d="M25.8714 5.99329C26.1958 6.06117 26.4037 6.37913 26.3358 6.70347C26.2679 7.02782 25.95 7.23572 25.6256 7.16784L25.8714 5.99329ZM20.4345 5.46846L19.8645 5.28126C19.9598 4.99086 20.2582 4.81857 20.5574 4.88118L20.4345 5.46846ZM19.3107 10.8138C19.2073 11.1286 18.8682 11.3 18.5534 11.1966C18.2386 11.0933 18.0672 10.7542 18.1706 10.4394L19.3107 10.8138ZM25.6256 7.16784L20.3116 6.05573L20.5574 4.88118L25.8714 5.99329L25.6256 7.16784ZM21.0046 5.65566L19.3107 10.8138L18.1706 10.4394L19.8645 5.28126L21.0046 5.65566Z" fill="#2E2318"/>
</svg>
