<svg width="27" height="20" viewBox="0 0 27 20" fill="none" xmlns="http://www.w3.org/2000/svg">
<path d="M9.2445 6.08059L9.15385 5.33609L7.66484 5.5174L7.7555 6.2619L9.2445 6.08059ZM19.2454 6.08278L19.3282 5.33737L17.8373 5.1718L17.7546 5.91722L19.2454 6.08278ZM17.2245 17.4844L17.5363 18.1666C17.7762 18.057 17.9409 17.8294 17.97 17.5672L17.2245 17.4844ZM9.87756 17.4844L9.13306 17.5751C9.16346 17.8247 9.31696 18.0425 9.54186 18.1551L9.87756 17.4844ZM17.7546 5.91722L16.4791 17.4017L17.97 17.5672L19.2454 6.08278L17.7546 5.91722ZM16.9128 16.8023C14.6379 17.8418 12.2669 17.8417 10.2133 16.8138L9.54186 18.1551C12.0386 19.4048 14.8878 19.3768 17.5363 18.1666L16.9128 16.8023ZM10.6221 17.3938L9.2445 6.08059L7.7555 6.2619L9.13306 17.5751L10.6221 17.3938Z" fill="#894200"/>
<path d="M13.217 8.49275L13.143 7.08372C13.2732 7.0543 13.366 7.03579 13.5163 7.03508C14.8117 7.02894 16.0126 6.8641 16.9134 6.58435C17.3591 6.44593 17.7742 6.26639 18.0937 6.03294C18.3962 5.81198 18.755 5.43289 18.7499 4.88459C18.7445 4.29922 18.3302 3.91314 18.0014 3.69682C17.7285 3.51725 17.3928 3.3706 17.0251 3.25161C16.5726 2.46917 15.6446 2.02402 14.7215 2.31185C14.6794 2.325 14.638 2.33947 14.5975 2.35521C13.8784 1.3702 12.4876 1.02263 11.2615 1.40495C10.1644 1.74706 9.31357 2.61939 9.10129 3.66361C8.95036 3.75452 8.80956 3.85783 8.68762 3.97577C8.46232 4.19367 8.24615 4.51929 8.25005 4.9411C8.25395 5.36302 8.50291 5.67479 8.68615 5.85448C8.88878 6.05318 9.14666 6.22369 9.41333 6.36629C9.80112 6.57366 10.2705 6.75531 10.7654 6.88944L10.8562 8.61726C10.8659 8.80256 10.9116 9.08663 11.0588 9.34899C11.2211 9.63827 11.5644 9.97449 12.1101 9.9455C12.6556 9.91652 12.9613 9.5461 13.0922 9.24162C13.211 8.96531 13.2268 8.67808 13.217 8.49275Z" stroke="#894200" stroke-width="1.5"/>
<path d="M1 11H9" stroke="#894200" stroke-width="1.5" stroke-linecap="round"/>
<path d="M18 11H26" stroke="#894200" stroke-width="1.5" stroke-linecap="round"/>
</svg>
