<svg width="27" height="25" viewBox="0 0 27 25" fill="none" xmlns="http://www.w3.org/2000/svg">
<path d="M8.50037 9.53093L9.43297 18.1616C10.9733 18.9599 12.7403 18.9501 14.4069 18.1616L15.2703 9.41089" stroke="#D09622" stroke-width="0.9" stroke-linejoin="round"/>
<path d="M11.4957 11.5067L11.4513 10.665C11.6015 10.6704 11.7545 10.6728 11.9096 10.6721C12.8457 10.6677 13.7156 10.5493 14.3705 10.3471C14.6942 10.2472 14.9997 10.1164 15.2371 9.94399C15.4602 9.78192 15.7393 9.49389 15.7354 9.06968C15.7311 8.61697 15.4094 8.32445 15.1683 8.16673C14.9717 8.03816 14.7328 7.93347 14.4733 7.84851C14.1297 7.27806 13.4427 6.95729 12.7595 7.16907C12.7422 7.17442 12.7251 7.18007 12.7082 7.18601C12.1659 6.48419 11.1538 6.24638 10.27 6.52036C9.4738 6.7672 8.84681 7.39473 8.67958 8.15594C8.57652 8.21946 8.47965 8.29144 8.39447 8.37334C8.2253 8.53599 8.05694 8.7849 8.05998 9.11134C8.065 9.65005 8.51175 9.96363 8.80221 10.1171C9.03187 10.2384 9.30886 10.3382 9.61396 10.418L9.67654 11.6028C9.68387 11.7415 9.71819 11.9557 9.83068 12.1551C9.95562 12.3765 10.2213 12.635 10.642 12.6128C11.0627 12.5906 11.2997 12.3055 11.4006 12.0721C11.4915 11.862 11.503 11.6454 11.4957 11.5067Z" stroke="#D09622" stroke-width="0.9"/>
<path d="M20.6972 5.76429C22.1407 7.62543 23 9.96236 23 12.5C23 18.5751 18.0751 23.5 12 23.5C5.92487 23.5 1 18.5751 1 12.5C1 6.42487 5.92487 1.5 12 1.5C14.2136 1.5 16.2744 2.15384 18 3.27893" stroke="#D09622" stroke-width="0.9" stroke-linecap="round"/>
<path d="M25.923 6.01282C26.2473 6.0807 26.4552 6.39866 26.3873 6.723C26.3194 7.04735 26.0015 7.25525 25.6771 7.18737L25.923 6.01282ZM20.486 5.48799L19.916 5.30079C20.0113 5.01039 20.3098 4.8381 20.6089 4.90071L20.486 5.48799ZM19.3622 10.8333C19.2588 11.1482 18.9198 11.3196 18.6049 11.2162C18.2901 11.1128 18.1187 10.7738 18.2221 10.4589L19.3622 10.8333ZM25.6771 7.18737L20.3631 6.07526L20.6089 4.90071L25.923 6.01282L25.6771 7.18737ZM21.0561 5.67519L19.3622 10.8333L18.2221 10.4589L19.916 5.30079L21.0561 5.67519Z" fill="#D09622"/>
</svg>
