<svg width="20" height="20" viewBox="0 0 20 20" fill="none" xmlns="http://www.w3.org/2000/svg">
<path d="M2.2445 6.08059L2.15385 5.33609L0.664844 5.5174L0.755499 6.2619L2.2445 6.08059ZM12.2454 6.08278L12.3282 5.33737L10.8373 5.1718L10.7546 5.91722L12.2454 6.08278ZM10.2245 17.4844L10.5363 18.1666C10.7762 18.057 10.9409 17.8294 10.97 17.5672L10.2245 17.4844ZM2.87756 17.4844L2.13306 17.5751C2.16346 17.8247 2.31696 18.0425 2.54186 18.1551L2.87756 17.4844ZM10.7546 5.91722L9.47913 17.4017L10.97 17.5672L12.2454 6.08278L10.7546 5.91722ZM9.91283 16.8023C7.63792 17.8418 5.26688 17.8417 3.21326 16.8138L2.54186 18.1551C5.03855 19.4048 7.88784 19.3768 10.5363 18.1666L9.91283 16.8023ZM3.62206 17.3938L2.2445 6.08059L0.755499 6.2619L2.13306 17.5751L3.62206 17.3938Z" fill="#894200"/>
<path d="M6.21703 8.49275L6.14303 7.08372C6.27318 7.0543 6.36599 7.03579 6.51625 7.03508C7.81173 7.02894 9.01257 6.8641 9.91338 6.58435C10.3591 6.44593 10.7742 6.26639 11.0937 6.03294C11.3962 5.81198 11.755 5.43289 11.7499 4.88459C11.7445 4.29922 11.3302 3.91314 11.0014 3.69682C10.7285 3.51725 10.3928 3.3706 10.0251 3.25161C9.5726 2.46917 8.64458 2.02402 7.72151 2.31185C7.67936 2.325 7.63802 2.33947 7.59749 2.35521C6.87844 1.3702 5.48756 1.02263 4.26146 1.40495C3.16437 1.74706 2.31357 2.61939 2.10129 3.66361C1.95036 3.75452 1.80956 3.85783 1.68762 3.97577C1.46232 4.19367 1.24615 4.51929 1.25005 4.9411C1.25395 5.36302 1.50291 5.67479 1.68615 5.85448C1.88878 6.05318 2.14666 6.22369 2.41333 6.36629C2.80112 6.57366 3.27053 6.75531 3.76543 6.88944L3.85616 8.61726C3.86589 8.80256 3.9116 9.08663 4.05878 9.34899C4.22106 9.63827 4.56435 9.97449 5.11007 9.9455C5.65556 9.91652 5.96132 9.5461 6.09224 9.24162C6.21104 8.96531 6.22676 8.67808 6.21703 8.49275Z" stroke="#894200" stroke-width="1.5"/>
<path d="M11 11H19" stroke="#894200" stroke-width="1.5" stroke-linecap="round"/>
</svg>
