<svg width="23" height="20" viewBox="0 0 23 20" fill="none" xmlns="http://www.w3.org/2000/svg">
<path d="M19 11H22" stroke="#894200" stroke-width="1.5" stroke-linecap="round"/>
<path d="M10.2445 6.08059L10.1538 5.33609L8.66484 5.5174L8.7555 6.2619L10.2445 6.08059ZM20.2454 6.08278L20.3282 5.33737L18.8373 5.1718L18.7546 5.91722L20.2454 6.08278ZM18.2245 17.4844L18.5363 18.1666C18.7762 18.057 18.9409 17.8294 18.97 17.5672L18.2245 17.4844ZM10.8776 17.4844L10.1331 17.5751C10.1635 17.8247 10.317 18.0425 10.5419 18.1551L10.8776 17.4844ZM18.7546 5.91722L17.4791 17.4017L18.97 17.5672L20.2454 6.08278L18.7546 5.91722ZM17.9128 16.8023C15.6379 17.8418 13.2669 17.8417 11.2133 16.8138L10.5419 18.1551C13.0386 19.4048 15.8878 19.3768 18.5363 18.1666L17.9128 16.8023ZM11.6221 17.3938L10.2445 6.08059L8.7555 6.2619L10.1331 17.5751L11.6221 17.3938Z" fill="#894200"/>
<path d="M14.217 8.49275L14.143 7.08372C14.2732 7.0543 14.366 7.03579 14.5163 7.03508C15.8117 7.02894 17.0126 6.8641 17.9134 6.58435C18.3591 6.44593 18.7742 6.26639 19.0937 6.03294C19.3962 5.81198 19.755 5.43289 19.7499 4.88459C19.7445 4.29922 19.3302 3.91314 19.0014 3.69682C18.7285 3.51725 18.3928 3.3706 18.0251 3.25161C17.5726 2.46917 16.6446 2.02402 15.7215 2.31185C15.6794 2.325 15.638 2.33947 15.5975 2.35521C14.8784 1.3702 13.4876 1.02263 12.2615 1.40495C11.1644 1.74706 10.3136 2.61939 10.1013 3.66361C9.95036 3.75452 9.80956 3.85783 9.68762 3.97577C9.46232 4.19367 9.24615 4.51929 9.25005 4.9411C9.25395 5.36302 9.50291 5.67479 9.68615 5.85448C9.88878 6.05318 10.1467 6.22369 10.4133 6.36629C10.8011 6.57366 11.2705 6.75531 11.7654 6.88944L11.8562 8.61726C11.8659 8.80256 11.9116 9.08663 12.0588 9.34899C12.2211 9.63827 12.5644 9.97449 13.1101 9.9455C13.6556 9.91652 13.9613 9.5461 14.0922 9.24162C14.211 8.96531 14.2268 8.67808 14.217 8.49275Z" stroke="#894200" stroke-width="1.5"/>
<path d="M10 11L1 11M1 11L4 14M1 11L4 8" stroke="#894200" stroke-width="1.5" stroke-linecap="round" stroke-linejoin="round"/>
</svg>
