<svg width="50" height="50" viewBox="0 0 50 50" fill="none" xmlns="http://www.w3.org/2000/svg">
<circle cx="25" cy="25" r="25" fill="#2E2318"/>
<g opacity="0.08">
<mask id="mask0" mask-type="alpha" maskUnits="userSpaceOnUse" x="0" y="0" width="50" height="50">
<circle cx="25" cy="25" r="25" fill="#2B2B2B"/>
</mask>
<g mask="url(#mask0)">
<path d="M83.2026 1.26934L-28 -2C-26.9691 12.2333 -4.23901 19.6261 25.8632 29.3556C26.7734 29.6498 27.0821 30.7912 26.44 31.5026L10.837 48.7907C10.0525 49.6599 10.7006 51.0482 11.8678 50.9987L67.4049 48.6457C69.2176 48.5689 70.4132 46.7186 69.7461 45.0245C68.6705 42.2932 67.1434 38.3932 65.85 35.0073C62.3005 25.7151 61.0027 21.1562 84.2052 4.69196C85.6641 3.65674 84.9882 1.32184 83.2026 1.26934Z" fill="#CA8D55"/>
<path d="M12.6772 25.0417C35.7077 15.3687 59.9035 7.93583 84.9942 3.01428C85.0417 3.62752 84.8021 4.26847 84.2054 4.69194C61.0028 21.1562 62.3006 25.7151 65.8502 35.0073C67.1436 38.3932 68.6707 42.2931 69.7463 45.0245C70.4133 46.7186 69.2177 48.5689 67.4051 48.6457L11.8679 50.9987C10.7007 51.0481 10.0526 49.6599 10.8371 48.7906L26.4402 31.5026C27.0823 30.7911 26.7735 29.6498 25.8633 29.3556C21.2802 27.8743 16.868 26.4471 12.6772 25.0417Z" fill="url(#paint0_linear)"/>
</g>
</g>
<defs>
<linearGradient id="paint0_linear" x1="43.7133" y1="13.8603" x2="43.7133" y2="44.5235" gradientUnits="userSpaceOnUse">
<stop stop-color="#2E2318"/>
<stop offset="1" stop-color="#CA8D55"/>
</linearGradient>
</defs>
</svg>
