<!-- Generated by IcoMoon.io -->
<svg version="1.1" xmlns="http://www.w3.org/2000/svg" width="640" height="640" viewBox="0 0 640 640">
<title></title>
<g id="icomoon-ignore">
</g>
<path d="M611.313 28.686c-17.981-17.98-41.886-27.882-67.313-27.882-25.428 0-49.333 9.902-67.313 27.882l-408 408c-1.653 1.653-2.924 3.648-3.723 5.846l-64 176c-2.125 5.842-0.673 12.386 3.723 16.781 3.053 3.055 7.144 4.687 11.315 4.687 1.833 0 3.682-0.314 5.465-0.963l176-64c2.197-0.8 4.193-2.070 5.846-3.724l408-408c17.98-17.98 27.883-41.886 27.883-67.314s-9.902-49.333-27.883-67.313zM183.196 546.177l-140.443 51.069 51.070-140.442 354.177-354.177 89.373 89.373-354.177 354.177zM588.687 140.686l-28.687 28.687-89.373-89.373 28.687-28.687c11.936-11.936 27.806-18.509 44.686-18.509s32.75 6.574 44.687 18.51c11.936 11.936 18.51 27.806 18.51 44.686s-6.575 32.75-18.51 44.686z"></path>
</svg>
