<svg width="25" height="22" viewBox="0 0 25 22" fill="none" xmlns="http://www.w3.org/2000/svg">
<path d="M10 3.4C9.66863 3.4 9.4 3.66863 9.4 4C9.4 4.33137 9.66863 4.6 10 4.6V3.4ZM24 4.6C24.3314 4.6 24.6 4.33137 24.6 4C24.6 3.66863 24.3314 3.4 24 3.4V4.6ZM10 4.6H24V3.4H10V4.6Z" fill="#d09622"/>
<path d="M5.29266 5.49963L5.29274 5.99963C5.56885 5.99959 5.79266 5.77575 5.79266 5.49963H5.29266ZM2.70734 5.5H2.20734C2.20734 5.63262 2.26002 5.75981 2.35381 5.85358C2.44759 5.94735 2.57479 6.00002 2.70741 6L2.70734 5.5ZM2.70734 3.34779H3.20734C3.20734 3.07165 2.98348 2.84779 2.70734 2.84779L2.70734 3.34779ZM1 3.34779L0.691849 2.95403C0.523852 3.08551 0.457772 3.30909 0.527307 3.51076C0.596841 3.71244 0.786673 3.84779 1 3.84779L1 3.34779ZM7 3.34779V3.84779C7.21333 3.84779 7.40316 3.71244 7.47269 3.51076C7.54223 3.30909 7.47615 3.08551 7.30815 2.95403L7 3.34779ZM5.29266 3.34779V2.84779C5.01652 2.84779 4.79266 3.07165 4.79266 3.34779H5.29266ZM4 1L4.30815 0.606245C4.12714 0.464585 3.87286 0.464585 3.69185 0.606245L4 1ZM5.29259 4.99963L2.70726 5L2.70741 6L5.29274 5.99963L5.29259 4.99963ZM3.20734 5.5V3.34779H2.20734V5.5H3.20734ZM2.70734 2.84779L1 2.84779L1 3.84779L2.70734 3.84779L2.70734 2.84779ZM7 2.84779H5.29266V3.84779H7V2.84779ZM4.79266 3.34779V5.49963H5.79266V3.34779H4.79266ZM1.30815 3.74154L4.30815 1.39375L3.69185 0.606245L0.691849 2.95403L1.30815 3.74154ZM3.69185 1.39375L6.69185 3.74154L7.30815 2.95403L4.30815 0.606245L3.69185 1.39375Z" fill="#d09622"/>
<path d="M10 11.4C9.66863 11.4 9.4 11.6686 9.4 12C9.4 12.3314 9.66863 12.6 10 12.6V11.4ZM24 12.6C24.3314 12.6 24.6 12.3314 24.6 12C24.6 11.6686 24.3314 11.4 24 11.4V12.6ZM10 12.6H24V11.4H10V12.6Z" fill="#d09622"/>
<path d="M2.70734 9.50037L2.70727 9.00037C2.43115 9.00041 2.20734 9.22425 2.20734 9.50037L2.70734 9.50037ZM5.29266 9.5L5.79266 9.5C5.79266 9.36738 5.73998 9.24019 5.64619 9.14642C5.55241 9.05265 5.42521 8.99998 5.29259 9L5.29266 9.5ZM5.29266 11.6522L4.79266 11.6522C4.79266 11.9284 5.01652 12.1522 5.29266 12.1522L5.29266 11.6522ZM7 11.6522L7.30815 12.046C7.47615 11.9145 7.54223 11.6909 7.47269 11.4892C7.40316 11.2876 7.21333 11.1522 7 11.1522L7 11.6522ZM1 11.6522L1 11.1522C0.786673 11.1522 0.596841 11.2876 0.527307 11.4892C0.457772 11.6909 0.523852 11.9145 0.691849 12.046L1 11.6522ZM2.70734 11.6522L2.70734 12.1522C2.98348 12.1522 3.20734 11.9284 3.20734 11.6522L2.70734 11.6522ZM4 14L3.69185 14.3938C3.87286 14.5354 4.12714 14.5354 4.30815 14.3938L4 14ZM2.70741 10.0004L5.29274 10L5.29259 9L2.70727 9.00037L2.70741 10.0004ZM4.79266 9.5L4.79266 11.6522L5.79266 11.6522L5.79266 9.5L4.79266 9.5ZM5.29266 12.1522L7 12.1522L7 11.1522L5.29266 11.1522L5.29266 12.1522ZM1 12.1522L2.70734 12.1522L2.70734 11.1522L1 11.1522L1 12.1522ZM3.20734 11.6522L3.20734 9.50037L2.20734 9.50037L2.20734 11.6522L3.20734 11.6522ZM6.69185 11.2585L3.69185 13.6062L4.30815 14.3938L7.30815 12.046L6.69185 11.2585ZM4.30815 13.6062L1.30815 11.2585L0.691849 12.046L3.69185 14.3938L4.30815 13.6062Z" fill="#d09622"/>
<path d="M10 19.4C9.66863 19.4 9.4 19.6686 9.4 20C9.4 20.3314 9.66863 20.6 10 20.6V19.4ZM24 20.6C24.3314 20.6 24.6 20.3314 24.6 20C24.6 19.6686 24.3314 19.4 24 19.4V20.6ZM10 20.6H24V19.4H10V20.6Z" fill="#d09622"/>
<path d="M5.29266 21.4996L5.29274 21.9996C5.56885 21.9996 5.79266 21.7757 5.79266 21.4996H5.29266ZM2.70734 21.5H2.20734C2.20734 21.6326 2.26002 21.7598 2.35381 21.8536C2.44759 21.9473 2.57479 22 2.70741 22L2.70734 21.5ZM2.70734 19.3478H3.20734C3.20734 19.0716 2.98348 18.8478 2.70734 18.8478L2.70734 19.3478ZM1 19.3478L0.691849 18.954C0.523852 19.0855 0.457772 19.3091 0.527307 19.5108C0.596841 19.7124 0.786673 19.8478 1 19.8478L1 19.3478ZM7 19.3478V19.8478C7.21333 19.8478 7.40316 19.7124 7.47269 19.5108C7.54223 19.3091 7.47615 19.0855 7.30815 18.954L7 19.3478ZM5.29266 19.3478V18.8478C5.01652 18.8478 4.79266 19.0716 4.79266 19.3478H5.29266ZM4 17L4.30815 16.6062C4.12714 16.4646 3.87286 16.4646 3.69185 16.6062L4 17ZM5.29259 20.9996L2.70726 21L2.70741 22L5.29274 21.9996L5.29259 20.9996ZM3.20734 21.5V19.3478H2.20734V21.5H3.20734ZM2.70734 18.8478L1 18.8478L1 19.8478L2.70734 19.8478L2.70734 18.8478ZM7 18.8478H5.29266V19.8478H7V18.8478ZM4.79266 19.3478V21.4996H5.79266V19.3478H4.79266ZM1.30815 19.7415L4.30815 17.3938L3.69185 16.6062L0.691849 18.954L1.30815 19.7415ZM3.69185 17.3938L6.69185 19.7415L7.30815 18.954L4.30815 16.6062L3.69185 17.3938Z" fill="#d09622"/>
</svg>
