<svg width="80" height="80" viewBox="0 0 80 80" fill="none" xmlns="http://www.w3.org/2000/svg">
<circle cx="40" cy="40" r="40" fill="#F4D03F"/>
<g opacity="0.5">
<mask id="mask0" mask-type="alpha" maskUnits="userSpaceOnUse" x="0" y="0" width="80" height="80">
<circle cx="40" cy="40" r="40" fill="#2B2B2B"/>
</mask>
<g mask="url(#mask0)">
<path d="M133.124 2.03093L-44.8 -3.20001C-43.1506 19.5733 -6.78247 31.4018 41.381 46.969C42.8374 47.4397 43.3314 49.2659 42.304 50.4042L17.3391 78.065C16.0839 79.4558 17.1209 81.677 18.9884 81.5979L107.848 77.8331C110.748 77.7103 112.661 74.7498 111.594 72.0392C109.873 67.669 107.429 61.4291 105.36 56.0117C99.6808 41.1441 97.6043 33.8499 134.728 7.50712C137.063 5.85078 135.981 2.11492 133.124 2.03093Z" fill="#EBAF3C"/>
<path d="M20.2834 40.0667C57.1322 24.59 95.8455 12.6974 135.991 4.82288C136.067 5.80406 135.683 6.82958 134.728 7.50713C97.6044 33.8499 99.6808 41.1441 105.36 56.0117C107.43 61.4292 109.873 67.6691 111.594 72.0392C112.661 74.7498 110.748 77.7103 107.848 77.8332L18.9886 81.5979C17.121 81.6771 16.0841 79.4558 17.3392 78.065L42.3041 50.4042C43.3316 49.2659 42.8375 47.4397 41.3812 46.969C34.0481 44.5988 26.9886 42.3153 20.2834 40.0667Z" fill="url(#paint0_linear)"/>
</g>
</g>
<defs>
<linearGradient id="paint0_linear" x1="69.9412" y1="22.1764" x2="69.9412" y2="71.2375" gradientUnits="userSpaceOnUse">
<stop stop-color="#E9662C"/>
<stop offset="1" stop-color="#EBAF3C"/>
</linearGradient>
</defs>
</svg>
